<svg xmlns="http://www.w3.org/2000/svg" width="64" height="64" viewBox="0 0 64 64" role="img" aria-label="ethernet">
  <defs>
    <linearGradient id="bg" x1="8" y1="8" x2="56" y2="56" gradientUnits="userSpaceOnUse">
      <stop offset="0" stop-color="#0ea5e9"/>
      <stop offset="1" stop-color="#22c55e"/>
    </linearGradient>
  </defs>
  <rect x="4" y="4" width="56" height="56" rx="14" fill="url(#bg)"/>
  <path fill="#fff" d="M49.31 32L40.56 23.14q-.62-.62-.65-1.56t.65-1.55q.62-.62 1.59-.62t1.59.62l10.45 10.45q.34.34.48.74T54.81 32t-.14.78t-.48.74L43.74 43.97q-.62.62-1.56.65t-1.62-.65q-.62-.62-.62-1.59t.62-1.59zm-34.62 0l8.75 8.86q.62.62.65 1.56t-.65 1.55q-.62.62-1.59.62t-1.59-.62L9.81 33.52q-.34-.34-.48-.74T9.19 32t.14-.78t.48-.74l10.45-10.45q.62-.62 1.56-.65t1.62.65q.62.62.62 1.59t-.62 1.59zm7.81 1.62q-.64-.64-.64-1.62t.64-1.62t1.62-.64t1.62.64t.64 1.62t-.64 1.62t-1.62.64t-1.62-.64m9.06 0q-.64-.64-.64-1.62t.64-1.62t1.62-.64t1.62.64t.64 1.62t-.64 1.62t-1.62.64t-1.62-.64m9.06 0q-.64-.64-.64-1.62t.64-1.62t1.62-.64t1.62.64t.64 1.62t-.64 1.62t-1.62.64t-1.62-.64"/>
</svg>
